<?xml version="1.0" encoding="utf-8"?>
<!-- Generator: Adobe Illustrator 16.0.0, SVG Export Plug-In . SVG Version: 6.00 Build 0)  -->
<!DOCTYPE svg PUBLIC "-//W3C//DTD SVG 1.1//EN" "http://www.w3.org/Graphics/SVG/1.1/DTD/svg11.dtd">
<svg version="1.1" id="Layer_1" xmlns="http://www.w3.org/2000/svg" xmlns:xlink="http://www.w3.org/1999/xlink" x="0px" y="0px"
	 viewBox="0 0 492.552 194.977" enable-background="new 0 0 492.552 194.977"
	 xml:space="preserve">
<g>
	<g>
		<path fill="#231F20" d="M45.63,148.584c-2.719-4.56-7.751-6.879-13.19-6.879c-12.638,0-23.159,11.117-24.902,23.516
			c-1.845,13.118,5.572,23.516,18.29,23.516c6.879,0,12.791-2.799,17.511-7.918l4.442,4.239c-5.995,6.799-13.792,9.919-22.83,9.919
			c-16.237,0-27.03-12.559-24.612-29.756c2.339-16.637,16.182-29.755,32.979-29.755c7.679,0,14.826,2.64,18.749,8.878L45.63,148.584
			z"/>
		<path fill="#231F20" d="M87.111,136.906h6.319l16.114,56.63h-7.839l-3.803-13.917H69.587l-7.795,13.917h-7.6L87.111,136.906z
			 M88.936,145.544h-0.16l-15.671,27.835H96.22L88.936,145.544z"/>
		<path fill="#231F20" d="M131.429,136.906h6.719l-7.085,50.391h25.916l-0.877,6.239h-32.635L131.429,136.906z"/>
		<path fill="#231F20" d="M199.421,136.906h6.319l16.114,56.63h-7.839l-3.803-13.917h-28.315l-7.795,13.917h-7.6L199.421,136.906z
			 M201.247,145.544h-0.16l-15.671,27.835h23.115L201.247,145.544z"/>
		<path fill="#231F20" d="M272.857,143.145H254.14l-7.085,50.392h-6.719l7.085-50.392h-18.717l0.877-6.238h44.152L272.857,143.145z"
			/>
		<path fill="#231F20" d="M288.056,136.906h14.478c10.958,0,22.331,1.6,20.363,15.597c-1.158,8.239-7.271,13.598-16.261,14.958
			l12.411,26.075h-8.238l-11.781-25.436h-8.639l-3.576,25.436h-6.719L288.056,136.906z M291.266,161.861h5.999
			c7.438,0,17.117,0,18.433-9.358c1.147-8.159-5.803-9.358-12.361-9.358h-9.438L291.266,161.861z"/>
		<path fill="#231F20" d="M363.328,136.906h6.319l16.114,56.63h-7.839l-3.803-13.917h-28.315l-7.795,13.917h-7.6L363.328,136.906z
			 M365.153,145.544h-0.16l-15.671,27.835h23.115L365.153,145.544z"/>
		<path fill="#231F20" d="M393.488,136.906h7.599l10.892,46.552h0.16l24.542-46.552h7.119l-30.118,56.63h-6.479L393.488,136.906z"/>
		<path fill="#231F20" d="M470.119,136.906h6.319l16.114,56.63h-7.839l-3.803-13.917h-28.315l-7.795,13.917h-7.6L470.119,136.906z
			 M471.944,145.544h-0.16l-15.671,27.835h23.115L471.944,145.544z"/>
	</g>
	<g>
		<g>
			<path fill="#231F20" d="M474.779,123.227c0,0-60.427-27.502-121.756-55.414c-15.353-6.932-30.705-13.863-45.1-20.361
				c-7.196-3.25-14.153-6.391-20.75-9.369c-6.584-3.008-12.869-5.716-18.649-8.264c-23.139-10.152-38.565-16.922-38.565-16.922
				s15.451,6.711,38.628,16.779c5.79,2.525,12.087,5.211,18.681,8.195c6.607,2.953,13.576,6.068,20.785,9.291
				c14.418,6.445,29.797,13.32,45.177,20.195c61.433,27.684,123.963,55.869,123.963,55.869H474.779z"/>
			<path fill="#231F20" d="M444.784,123.227c0,0-56.677-25.893-114.252-52.195c-14.413-6.533-28.827-13.064-42.339-19.188
				c-6.757-3.062-13.288-6.022-19.481-8.829c-6.181-2.835-12.081-5.387-17.508-7.787c-21.724-9.568-36.205-15.947-36.205-15.947
				s14.507,6.322,36.268,15.805c5.437,2.379,11.349,4.908,17.54,7.719c6.205,2.782,12.748,5.717,19.516,8.752
				c13.537,6.07,27.977,12.545,42.416,19.021c57.679,26.075,116.485,52.651,116.485,52.651H444.784z"/>
			<path fill="#231F20" d="M414.702,123.227c0,0-52.246-23.928-105.388-48.264c-13.305-6.045-26.608-12.088-39.08-17.754
				c-6.236-2.834-12.266-5.572-17.981-8.17c-5.705-2.623-11.151-4.984-16.16-7.205c-20.052-8.854-33.419-14.756-33.419-14.756
				s13.393,5.846,33.481,14.613c5.019,2.199,10.477,4.538,16.192,7.137c5.727,2.572,11.768,5.285,18.016,8.092
				c12.497,5.613,25.826,11.6,39.157,17.587c53.247,24.11,107.609,48.72,107.609,48.72H414.702z"/>
			<path fill="#231F20" d="M384.618,123.227c0,0-47.66-21.869-96.214-44.148c-12.155-5.533-24.311-11.066-35.706-16.253
				c-5.698-2.594-11.206-5.101-16.429-7.478c-5.213-2.402-10.188-4.563-14.765-6.598c-18.32-8.104-30.534-13.508-30.534-13.508
				s12.238,5.346,30.597,13.365c4.587,2.012,9.573,4.15,14.798,6.527c5.233,2.354,10.754,4.835,16.463,7.402
				c11.42,5.133,23.602,10.609,35.783,16.086c48.658,22.052,98.394,44.604,98.394,44.604H384.618z"/>
			<path fill="#231F20" d="M354.621,123.227c0,0-42.926-19.732-86.744-39.874c-10.971-5.002-21.939-10.004-32.224-14.693
				c-5.142-2.345-10.112-4.611-14.827-6.761c-4.703-2.171-9.194-4.125-13.324-5.963c-16.534-7.328-27.557-12.213-27.557-12.213
				s11.048,4.828,27.619,12.069c4.141,1.817,8.643,3.749,13.357,5.896c4.725,2.125,9.707,4.365,14.861,6.684
				c10.309,4.636,21.305,9.581,32.301,14.526c43.922,19.915,88.952,40.329,88.952,40.329H354.621z"/>
			<path fill="#231F20" d="M324.539,123.227c0,0-38.389-17.676-77.666-35.76c-9.834-4.492-19.666-8.983-28.885-13.193
				c-4.609-2.105-9.065-4.141-13.291-6.07c-4.217-1.95-8.242-3.705-11.944-5.355c-14.82-6.58-24.701-10.967-24.701-10.967
				s9.905,4.33,24.765,10.824c3.712,1.629,7.749,3.361,11.977,5.286c4.236,1.905,8.703,3.915,13.325,5.993
				c9.243,4.158,19.103,8.592,28.962,13.027c39.383,17.857,79.862,36.215,79.862,36.215H324.539z"/>
			<path fill="#231F20" d="M295.041,123.227c0,0-33.492-15.45-67.873-31.311c-8.606-3.938-17.214-7.877-25.283-11.57
				c-4.034-1.846-7.935-3.631-11.633-5.323c-3.691-1.71-7.215-3.248-10.455-4.696c-12.974-5.77-21.622-9.617-21.622-9.617
				s8.674,3.789,21.685,9.475c3.251,1.426,6.786,2.942,10.488,4.627c3.709,1.668,7.621,3.428,11.668,5.247
				c8.094,3.64,16.727,7.521,25.359,11.403c34.486,15.633,70.099,31.766,70.099,31.766H295.041z"/>
			<path fill="#231F20" d="M265.067,123.227c0,0-28.991-13.39-58.846-27.189c-7.474-3.427-14.948-6.854-21.955-10.066
				c-3.503-1.606-6.89-3.16-10.102-4.632c-3.205-1.487-6.265-2.827-9.079-4.086c-11.266-5.021-18.775-8.368-18.775-8.368
				s7.535,3.29,18.839,8.225c2.823,1.238,5.896,2.555,9.111,4.018c3.223,1.448,6.621,2.976,10.137,4.555
				c7.031,3.16,14.531,6.531,22.031,9.9c29.96,13.572,61.045,27.645,61.045,27.645H265.067z"/>
			<path fill="#231F20" d="M234.963,123.227c0,0-24.13-11.182-49.143-22.773c-6.263-2.878-12.524-5.757-18.396-8.455
				c-2.935-1.35-5.772-2.654-8.463-3.891c-2.686-1.25-5.249-2.375-7.606-3.434c-9.438-4.217-15.731-7.029-15.731-7.029
				s6.317,2.755,15.794,6.887c2.368,1.037,4.942,2.139,7.64,3.364c2.701,1.212,5.551,2.491,8.498,3.813
				c5.896,2.646,12.184,5.468,18.472,8.29c25.118,11.364,51.336,23.228,51.336,23.228H234.963z"/>
			<path fill="#231F20" d="M204.895,123.227c0,0-4.154-1.927-11.685-5.432c-3.765-1.752-8.157-3.796-12.863-5.986
				c-4.711-2.178-9.715-4.553-14.758-6.836c-20.147-9.196-40.296-18.393-40.296-18.393s20.251,8.969,40.503,17.938
				c5.072,2.227,10.1,4.545,14.836,6.67c4.73,2.137,9.146,4.131,12.93,5.841c7.569,3.419,13.755,6.198,13.755,6.198H204.895z"/>
			<path fill="#231F20" d="M174.897,123.227c0,0-2.955-1.361-8.684-4.018c-5.732-2.652-13.375-6.188-21.018-9.723
				c-15.331-6.973-30.662-13.945-30.662-13.945s15.434,6.745,30.867,13.49c7.695,3.422,15.391,6.843,21.162,9.409
				c5.769,2.571,10.848,4.786,10.848,4.786H174.897z"/>
			<path fill="#231F20" d="M144.678,123.227c0,0-9.649-4.608-20.3-9.627c-10.685-4.946-21.368-9.893-21.368-9.893
				s10.787,4.719,21.575,9.438c10.755,4.791,22.617,10.082,22.617,10.082H144.678z"/>
		</g>
		<path fill="#231F20" d="M0.719,123.227c0,0,60.52-29.779,118.376-58.172c14.484-7.057,28.969-14.114,42.547-20.73
			c6.796-3.296,13.364-6.482,19.594-9.504c6.238-3.002,12.137-5.84,17.581-8.459c5.449-2.611,10.444-5.004,14.871-7.125
			c4.414-2.148,8.325-3.891,11.519-5.385c6.397-2.957,10.054-4.646,10.054-4.646s-3.636,1.732-10.001,4.764
			c-3.174,1.531-7.062,3.318-11.451,5.517c-4.402,2.173-9.368,4.624-14.786,7.298c-5.413,2.682-11.277,5.588-17.479,8.662
			c-6.193,3.094-12.725,6.355-19.48,9.73c-13.5,6.773-27.9,13.998-42.301,21.223C62.243,95.461,7.25,123.227,7.25,123.227H0.719z"/>
		<path fill-rule="evenodd" clip-rule="evenodd" fill="#231F20" d="M251.221,0c0,0-124,70.404-135.971,123.182H57.227
			c0,0,33.66-4.443,70.847-39.146C128.074,84.035,200.221,21.332,251.221,0"/>
	</g>
</g>
</svg>
