<?xml version="1.0" encoding="utf-8"?>
<!-- Generator: Adobe Illustrator 16.0.0, SVG Export Plug-In . SVG Version: 6.00 Build 0)  -->
<!DOCTYPE svg PUBLIC "-//W3C//DTD SVG 1.1//EN" "http://www.w3.org/Graphics/SVG/1.1/DTD/svg11.dtd">
<svg version="1.1" id="Layer_1" xmlns="http://www.w3.org/2000/svg" xmlns:xlink="http://www.w3.org/1999/xlink" x="0px" y="0px"
	 viewBox="0.001 455.243 791.999 313.514"
	 enable-background="new 0.001 455.243 791.999 313.514" xml:space="preserve">
<g>
	<g>
		<path fill="#231F20" d="M73.371,694.159c-4.372-7.332-12.463-11.062-21.209-11.062c-20.321,0-37.239,17.876-40.042,37.812
			c-2.966,21.094,8.959,37.813,29.41,37.813c11.061,0,20.567-4.501,28.157-12.732l7.143,6.816
			c-9.64,10.933-22.177,15.949-36.709,15.949c-26.108,0-43.463-20.194-39.575-47.847c3.761-26.751,26.02-47.844,53.029-47.844
			c12.348,0,23.839,4.244,30.147,14.275L73.371,694.159z"/>
		<path fill="#231F20" d="M140.07,675.382h10.161l25.911,91.058h-12.605l-6.115-22.378h-45.529l-12.534,22.378h-12.22
			L140.07,675.382z M143.005,689.271h-0.257l-25.198,44.758h37.168L143.005,689.271z"/>
		<path fill="#231F20" d="M211.332,675.382h10.804l-11.392,81.026h41.671l-1.41,10.031h-52.476L211.332,675.382z"/>
		<path fill="#231F20" d="M320.659,675.382h10.161l25.91,91.058h-12.604l-6.115-22.378h-45.529l-12.534,22.378h-12.221
			L320.659,675.382z M323.596,689.271h-0.258l-25.198,44.758h37.167L323.596,689.271z"/>
		<path fill="#231F20" d="M438.741,685.413h-30.097l-11.392,81.028h-10.804l11.392-81.028h-30.096l1.41-10.03h70.994
			L438.741,685.413z"/>
		<path fill="#231F20" d="M463.18,675.382h23.28c17.62,0,35.907,2.572,32.743,25.079c-1.862,13.248-11.691,21.864-26.147,24.052
			l19.957,41.927h-13.247l-18.943-40.899h-13.891l-5.75,40.899h-10.804L463.18,675.382z M468.342,715.508h9.646
			c11.959,0,27.522,0,29.639-15.047c1.845-13.119-9.331-15.048-19.876-15.048h-15.176L468.342,715.508z"/>
		<path fill="#231F20" d="M584.214,675.382h10.161l25.91,91.058h-12.604l-6.115-22.378h-45.529l-12.534,22.378h-12.22
			L584.214,675.382z M587.148,689.271h-0.257l-25.198,44.758h37.168L587.148,689.271z"/>
		<path fill="#231F20" d="M632.71,675.382h12.219l17.514,74.853h0.258l39.462-74.853h11.447l-48.429,91.058h-10.418L632.71,675.382z
			"/>
		<path fill="#231F20" d="M755.929,675.382h10.161L792,766.439h-12.604l-6.115-22.378h-45.529l-12.534,22.378h-12.221
			L755.929,675.382z M758.863,689.271h-0.257l-25.198,44.758h37.167L758.863,689.271z"/>
	</g>
	<g>
		<g>
			<path fill="#231F20" d="M763.422,653.387c0,0-97.164-44.223-195.777-89.104c-24.688-11.146-49.373-22.291-72.52-32.739
				c-11.57-5.227-22.757-10.276-33.364-15.065c-10.587-4.836-20.693-9.19-29.987-13.288c-37.206-16.323-62.011-27.21-62.011-27.21
				s24.845,10.791,62.112,26.98c9.311,4.06,19.436,8.379,30.038,13.177c10.624,4.748,21.829,9.757,33.421,14.939
				c23.184,10.363,47.912,21.418,72.643,32.473c98.781,44.515,199.327,89.835,199.327,89.835h-3.882V653.387z"/>
			<path fill="#231F20" d="M715.191,653.387c0,0-91.134-41.635-183.712-83.928c-23.175-10.505-46.353-21.006-68.079-30.854
				c-10.865-4.923-21.366-9.683-31.324-14.196c-9.938-4.559-19.426-8.662-28.152-12.521c-34.931-15.385-58.216-25.642-58.216-25.642
				s23.326,10.165,58.317,25.414c8.742,3.825,18.248,7.892,28.203,12.411c9.978,4.474,20.498,9.193,31.381,14.073
				c21.767,9.76,44.986,20.172,68.203,30.585c92.745,41.927,187.303,84.66,187.303,84.66h-3.924V653.387z"/>
			<path fill="#231F20" d="M666.821,653.387c0,0-84.01-38.476-169.459-77.606c-21.394-9.721-42.784-19.438-62.839-28.548
				c-10.027-4.557-19.724-8.959-28.913-13.137c-9.173-4.218-17.93-8.015-25.984-11.586c-32.242-14.236-53.736-23.727-53.736-23.727
				s21.536,9.4,53.836,23.497c8.07,3.536,16.847,7.297,26.036,11.476c9.209,4.136,18.923,8.498,28.969,13.012
				c20.095,9.025,41.527,18.652,62.963,28.279c85.618,38.768,173.03,78.34,173.03,78.34H666.821z"/>
			<path fill="#231F20" d="M618.447,653.387c0,0-76.635-35.165-154.707-70.988c-19.545-8.896-39.092-17.794-57.414-26.134
				c-9.162-4.171-18.019-8.202-26.417-12.024c-8.382-3.862-16.382-7.337-23.741-10.609C326.71,520.6,307.07,511.91,307.07,511.91
				s19.679,8.597,49.199,21.49c7.375,3.235,15.393,6.674,23.794,10.496c8.415,3.784,17.292,7.773,26.472,11.901
				c18.363,8.254,37.951,17.059,57.537,25.866c78.24,35.458,158.213,71.721,158.213,71.721h-3.838V653.387z"/>
			<path fill="#231F20" d="M570.214,653.387c0,0-69.023-31.729-139.48-64.116c-17.641-8.043-35.276-16.086-51.814-23.625
				c-8.269-3.771-16.26-7.415-23.841-10.872c-7.562-3.49-14.784-6.633-21.425-9.588c-26.586-11.783-44.311-19.638-44.311-19.638
				s17.765,7.763,44.41,19.406c6.658,2.922,13.897,6.028,21.478,9.48c7.598,3.417,15.608,7.019,23.896,10.747
				c16.576,7.455,34.258,15.406,51.938,23.357c70.625,32.022,143.03,64.848,143.03,64.848H570.214L570.214,653.387z"/>
			<path fill="#231F20" d="M521.843,653.387c0,0-61.728-28.423-124.883-57.501c-15.812-7.223-31.622-14.444-46.445-21.214
				c-7.411-3.385-14.576-6.658-21.372-9.76c-6.78-3.136-13.252-5.958-19.205-8.61c-23.83-10.581-39.718-17.635-39.718-17.635
				s15.927,6.962,39.82,17.404c5.969,2.619,12.46,5.404,19.259,8.5c6.812,3.062,13.994,6.295,21.426,9.636
				c14.862,6.687,30.717,13.816,46.569,20.947c63.326,28.713,128.415,58.232,128.415,58.232H521.843L521.843,653.387z"/>
			<path fill="#231F20" d="M474.412,653.387c0,0-53.854-24.844-109.137-50.347c-13.838-6.332-27.68-12.666-40.654-18.604
				c-6.486-2.968-12.759-5.838-18.705-8.559c-5.935-2.75-11.602-5.223-16.811-7.552c-20.862-9.277-34.767-15.463-34.767-15.463
				s13.947,6.092,34.868,15.235c5.228,2.293,10.912,4.73,16.864,7.439c5.964,2.683,12.254,5.513,18.762,8.438
				c13.015,5.853,26.896,12.093,40.776,18.335c55.451,25.138,112.716,51.078,112.716,51.078L474.412,653.387L474.412,653.387z"/>
			<path fill="#231F20" d="M426.215,653.387c0,0-46.616-21.531-94.621-43.719c-12.019-5.511-24.036-11.021-35.303-16.186
				c-5.633-2.583-11.079-5.082-16.244-7.448c-5.153-2.392-10.074-4.546-14.599-6.57c-18.115-8.073-30.189-13.455-30.189-13.455
				s12.116,5.29,30.292,13.226c4.539,1.99,9.48,4.107,14.65,6.46c5.183,2.329,10.646,4.786,16.3,7.324
				c11.305,5.081,23.365,10.502,35.424,15.919c48.175,21.823,98.158,44.452,98.158,44.452h-3.869V653.387z"/>
			<path fill="#231F20" d="M377.81,653.387c0,0-38.8-17.98-79.02-36.618c-10.07-4.628-20.138-9.257-29.58-13.596
				c-4.72-2.171-9.281-4.268-13.608-6.256c-4.319-2.011-8.44-3.819-12.23-5.522c-15.176-6.78-25.295-11.302-25.295-11.302
				s10.158,4.43,25.396,11.074c3.808,1.667,7.947,3.438,12.285,5.409c4.343,1.948,8.926,4.005,13.664,6.131
				c9.48,4.255,19.591,8.792,29.702,13.33c40.389,18.272,82.546,37.35,82.546,37.35H377.81L377.81,653.387z"/>
			<path fill="#231F20" d="M329.461,653.387c0,0-6.679-3.099-18.788-8.734c-6.054-2.817-13.117-6.104-20.684-9.626
				c-7.575-3.502-15.621-7.32-23.73-10.991c-32.396-14.787-64.794-29.575-64.794-29.575s32.562,14.422,65.126,28.843
				c8.156,3.581,16.241,7.309,23.856,10.726c7.605,3.436,14.706,6.643,20.791,9.392c12.171,5.498,22.117,9.967,22.117,9.967H329.461
				L329.461,653.387z"/>
			<path fill="#231F20" d="M281.226,653.387c0,0-4.751-2.188-13.963-6.461c-9.217-4.265-21.506-9.95-33.796-15.635
				c-24.652-11.212-49.303-22.423-49.303-22.423s24.817,10.846,49.633,21.691c12.373,5.503,24.748,11.003,34.027,15.13
				c9.276,4.134,17.443,7.695,17.443,7.695h-4.041V653.387z"/>
			<path fill="#231F20" d="M232.635,653.387c0,0-15.515-7.41-32.642-15.48c-17.181-7.953-34.358-15.907-34.358-15.907
				s17.345,7.588,34.691,15.176c17.293,7.704,36.367,16.212,36.367,16.212H232.635L232.635,653.387z"/>
		</g>
		<path fill="#231F20" d="M1.156,653.387c0,0,97.313-47.884,190.343-93.538c23.29-11.348,46.581-22.694,68.414-33.333
			c10.928-5.3,21.489-10.423,31.506-15.282c10.03-4.827,19.516-9.391,28.27-13.602c8.762-4.198,16.793-8.046,23.911-11.456
			c7.098-3.454,13.387-6.257,18.522-8.659c10.286-4.755,16.166-7.471,16.166-7.471s-5.847,2.785-16.081,7.66
			c-5.104,2.462-11.355,5.335-18.412,8.871c-7.078,3.494-15.063,7.436-23.775,11.735c-8.704,4.312-18.133,8.985-28.105,13.928
			c-9.958,4.975-20.461,10.219-31.323,15.646c-21.708,10.891-44.862,22.508-68.018,34.125
			c-92.489,46.729-180.916,91.376-180.916,91.376H1.156z"/>
		<path fill="#231F20" d="M403.951,455.243c0,0-199.386,113.206-218.635,198.07H92.018c0,0,54.124-7.144,113.919-62.944
			C205.937,590.367,321.945,489.544,403.951,455.243"/>
	</g>
</g>
</svg>
